<svg width="607" height="607" viewBox="0 0 607 607" fill="none" xmlns="http://www.w3.org/2000/svg">
<path d="M242.198 366.728C102.643 407.454 14.7326 270.854 68.4307 125.023C122.129 -20.8088 299.312 30.8994 340.019 170.577C380.727 310.254 381.753 326.002 242.198 366.728Z" fill="#40E0D0"/>
<path d="M429.979 52.5067C576.364 83.9383 608.894 256.812 478.774 335.39C348.654 413.969 218.534 303.959 283.594 162.517C348.654 21.0752 283.594 21.0752 429.979 52.5067Z" fill="#DA57F5"/>
<path d="M146.777 546.098C-3.68256 501.67 -3.69522 320.841 122.627 257.493C248.949 194.146 373.866 326.561 310.002 456.117C246.138 585.672 297.236 590.525 146.777 546.098Z" fill="#A2D149"/>
<path d="M481.547 506.13C636.292 457.326 584.711 262.107 447.16 245.839C309.609 229.57 240.833 375.984 292.415 489.862C343.997 603.739 326.803 554.935 481.547 506.13Z" fill="#E39E1C"/>
<path d="M229.962 324.465C251.485 357.674 272.291 387.67 292.379 414.452L291.303 420.345C273.726 426.772 255.969 430.522 238.033 431.593L232.114 426.772C212.743 393.562 196.96 364.816 184.763 340.534H146.021V345.355L148.173 427.308H93.2891L96.5176 350.175L93.2891 169.129L193.372 168.593C220.635 168.593 241.62 175.199 256.328 188.412C271.035 201.624 278.389 220.55 278.389 245.19C278.389 261.616 274.085 276.793 265.475 290.719C256.866 304.646 245.028 315.894 229.962 324.465ZM220.814 250.546C220.814 223.407 205.748 209.48 175.616 208.766L148.173 210.373L147.097 297.683L186.915 299.825C209.873 291.969 221.173 275.543 220.814 250.546Z" fill="white"/>
<path d="M493.061 214.123L444.633 211.444H427.953L426.339 345.355L428.491 427.308H374.145L376.835 350.175L374.683 211.444H358.54L309.037 214.123L305.27 209.302L309.037 169.129H493.061L496.289 173.414L493.061 214.123Z" fill="white"/>
</svg>
