<svg width="512" height="512" viewBox="0 0 512 512" fill="none" xmlns="http://www.w3.org/2000/svg">
<path d="M123.61 4.31227C261.359 -26.3133 337.886 111.502 276.664 249.317C215.442 387.132 47.0829 325.881 16.4721 188.066C-14.1387 50.2506 -14.1387 34.9378 123.61 4.31227Z" fill="#40E0D0"/>
<path d="M389.668 16.3949C527.091 46.8623 557.629 214.433 435.476 290.601C313.322 366.77 191.169 260.134 252.246 123.031C313.322 -14.0725 252.246 -14.0725 389.668 16.3949Z" fill="#DA57F5"/>
<path d="M123.319 496.019C-22.8369 466.322 -39.0765 288.135 74.6006 213.891C188.278 139.646 318.194 258.437 269.476 392.077C220.757 525.717 269.476 525.717 123.319 496.019Z" fill="#A2D149"/>
<path d="M422.294 458.367C568.814 409.408 519.974 213.57 389.735 197.25C259.495 180.93 194.376 327.809 243.216 442.048C292.055 556.287 275.775 507.327 422.294 458.367Z" fill="#E39E1C"/>
<path d="M203.673 280.872C225.196 314.081 246.002 344.077 266.09 370.859L265.014 376.752C247.437 383.179 229.68 386.929 211.744 388L205.825 383.179C186.454 349.969 170.67 321.223 158.474 296.941H119.732V301.762L121.884 383.715H67L70.2285 306.582L67 125.536L167.083 125C194.346 125 215.331 131.606 230.039 144.819C244.746 158.031 252.1 176.957 252.1 201.597C252.1 218.023 247.795 233.2 239.186 247.126C230.577 261.053 218.739 272.301 203.673 280.872ZM194.525 206.953C194.525 179.814 179.459 165.887 149.326 165.173L121.884 166.78L120.808 254.09L160.626 256.232C183.584 248.376 194.884 231.95 194.525 206.953Z" fill="white"/>
<path d="M466.772 170.53L418.344 167.851H401.664L400.049 301.762L402.202 383.715H347.855L350.546 306.582L348.394 167.851H332.251L282.748 170.53L278.981 165.709L282.748 125.536H466.772L470 129.821L466.772 170.53Z" fill="white"/>
</svg>
